# xmcd
#
# Track frame offsets:
#	150
#	14273
#	29875
#	53417
#	82499
#	115412
#	131328
#	146879
#	161275
#	182896
#	204251
#	231177
#	250992
#	269554
#	286225
#
# Disc length: 4049 seconds
# Revision: 0
# Processed by: cddbd v1.5.2PL0 Copyright (c) Steve Scherf et al.
# Submitted via: dBpowerAMP V12.0
#
DISCID=de0fcf0f
DTITLE=Various Artist - Golden Eigties The Rare Funky Selection Volume 3
DYEAR=2007
DGENRE=Funk
TTITLE0=Mac Machine - Rain Bow
TTITLE1=Charm's - One Step Closer
TTITLE2=Givens Family - I'm Still Waiting
TTITLE3=Bobby Bowens - 2 Shades Of Magic
TTITLE4=Round Tree - Hit On You (Remix)
TTITLE5=Williams Brothers - I Surrender
TTITLE6=Carter and Channel - Together Forever
TTITLE7=Rance Allen - I Can't Help Myself
TTITLE8=NW6 - I'm Feelin Fine
TTITLE9=Gaston - Mindsticker
TTITLE10=Billy Jones - I Can't Wait To Break
TTITLE11=Juicy - Gimme Some
TTITLE12=D. Bewdeth Band - Goldmine
TTITLE13=Patches - I'm Gonna Make This World A Better Place
TTITLE14=NK - N/K
EXTD=
EXTT0=
EXTT1=
EXTT2=
EXTT3=
EXTT4=
EXTT5=
EXTT6=
EXTT7=
EXTT8=
EXTT9=
EXTT10=
EXTT11=
EXTT12=
EXTT13=
EXTT14=
PLAYORDER=
